<svg width="680" height="764" xmlns="http://www.w3.org/2000/svg" xmlns:xlink="http://www.w3.org/1999/xlink" xml:space="preserve" overflow="hidden"><defs><clipPath id="clip0"><rect x="167" y="208" width="680" height="764"/></clipPath><clipPath id="clip1"><rect x="213" y="218" width="635" height="754"/></clipPath></defs><g clip-path="url(#clip0)" transform="translate(-167 -208)"><path d="M102.34 157.589 152.698 148.968 160.657 129.594C160.657 129.594 173.452 130.104 190.931 130.803 208.403 131.495 210.202 125.627 209.224 110.9 208.252 96.1731 208.252 96.1731 208.252 96.1731L220.305 91.647C220.305 91.647 211.721 87.5582 204.564 71.015 197.407 54.4778 197.826 28.2383 170.123 17.4485 142.425 6.65253 102.018 24.423 97.3943 54.247 92.7709 84.071 120.359 113.3 120.359 113.3ZM617.1 86.6895 351.63 87.139C348.738 87.1451 346.278 89.235 345.81 92.0844L315.676 274.078C315.196 276.94 317.408 279.54 320.306 279.54L591.182 279.54C593.509 279.54 595.49 277.839 595.83 275.536L622.956 93.4696C623.491 89.8973 620.714 86.6834 617.1 86.6895ZM472.439 521.072 501.485 559.487 464.942 581.042 448.077 676.608 373.119 676.608 391.861 553.867 361.879 522.014C361.879 522.014 238.197 600.714 122.953 600.714 7.70357 600.714 2.08385 503.272 2.08385 503.272L160.426 394.583 368.435 383.338 399.352 424.565C399.352 424.565 428.399 416.132 455.574 443.302 482.749 470.477 472.439 521.072 472.439 521.072" fill="#FFFFFF" transform="matrix(1.00233 0 0 1 168.715 208.719)"/><g clip-path="url(#clip1)"><path d="M199.473 72.5764C198.434 72.5764 197.595 73.4208 197.595 74.4537 197.595 75.4865 198.434 76.3249 199.473 76.3249 200.505 76.3249 201.344 75.4865 201.344 74.4537 201.344 73.4208 200.505 72.5764 199.473 72.5764ZM635.004 626.48C617.203 623.904 562.154 618.983 562.154 618.983L514.833 631.164 514.134 637.258C514.134 637.258 517.178 640.769 521.163 645.223 525.143 649.67 537.324 649.907 548.569 649.907 559.809 649.907 564.967 649.907 593.539 649.907 622.118 649.907 652.805 629.062 635.004 626.48ZM468.223 743.133 398.417 743.133C398.417 743.133 392.56 762.811 405.914 762.811L502.792 762.811C504.906 762.811 506.03 760.29 504.602 758.729 491.406 744.324 468.223 743.133 468.223 743.133ZM104.162 17.6368C84.4841 25.2918 76.2459 43.7123 78.5424 56.6224 80.8449 69.5265 73.8704 79.879 60.8509 84.9883 47.8314 90.0917 40.5166 108.871 49.7451 120.493 58.9736 132.109 67.9469 134.345 93.8402 135.687 119.727 137.03 131.623 128.749 133.379 116.009 135.141 103.263 137.455 92.1026 137.455 92.1026 137.455 92.1026 146.344 96.5194 170.274 84.3444 194.199 72.1693 191.484 30.4862 191.484 30.4862 165.517-0.23694 123.852 9.97576 104.162 17.6368ZM624.943 327.39C620.763 323.933 605.593 312.317 591.747 313.38 578.108 314.425 575.052 324.255 574.42 327.39L552.026 327.39 552.026 327.128C552.026 324.127 549.973 321.521 547.063 320.816L504.699 313.307C493.867 310.694 485.72 301.751 484.122 290.725L482.044 279.57 463.071 279.339 461.279 288.301C459.377 300.542 449.717 310.105 437.457 311.873L379.638 321.837C376.734 322.256 374.534 324.558 374.152 327.39L281.393 327.39 281.393 337.171 676.766 337.171 676.766 327.39ZM592.27 248.774 326.168 248.774 351.156 90.7417 617.252 90.7417 592.27 248.774" fill="#224C8D" transform="matrix(1.00233 0 0 1 168.715 208.719)"/></g><path d="M363.751 365.537 356.254 403.016C356.254 403.016 305.658 431.126 248.501 448.927 191.35 466.728 166.052 418.945 166.052 418.945L0.206562 505.143C0.206562 505.143-1.66465 444.243 5.83236 403.016 13.3233 361.788 33.0014 256.848 40.4984 219.369 47.9954 181.891 59.2349 152.844 92.0297 152.844 124.825 152.844 109.831 152.844 179.169 152.844 248.501 152.844 263.495 208.124 254.127 274.649 244.758 341.175 240.068 365.537 240.068 365.537L363.751 365.537" fill="#DA4944" transform="matrix(1.00233 0 0 1 168.715 208.719)"/><path d="M443.083 347.116C439.96 345.865 427.779 358.356 427.779 358.356 427.779 353.362 418.721 354.297 401.23 356.169 390.178 357.353 382.378 362.766 378.125 366.6 378.271 365.549 378.277 365.537 378.277 365.537L363.751 365.537 356.879 400.203C356.879 400.203 367.675 395.592 373.271 387.068 373.325 387.074 373.374 387.08 373.429 387.086 402.165 389.273 425.902 371.788 434.96 363.666 444.018 355.549 446.206 348.362 443.083 347.116ZM441.048 720.18C442.943 700.32 448.077 676.608 448.077 676.608L405.446 676.608C405.446 676.608 406.151 694.883 404.741 715.022 403.338 735.168 398.417 743.133 398.417 743.133L468.223 743.133C468.223 743.133 439.176 739.852 441.048 720.18ZM531.935 600.714 501.485 559.487 457.445 585.726 514.134 637.258C531.467 622.264 545.052 629.293 572.227 628.825 599.396 628.357 599.396 622.264 599.396 622.264ZM282.547 351.169C262.869 342.116 243.817 343.987 243.817 343.987L240.068 365.853 259.437 365.853C259.437 365.853 281.612 402.08 289.109 402.08 296.6 402.08 297.541 392.706 297.541 392.706 300.664 385.215 302.225 360.227 282.547 351.169ZM170.141 56.5313C170.165 56.0149 170.189 55.5167 170.195 54.9578 170.341 27.7705 149.8 1.95019 141.696 1.31228 133.597 0.674366 130.165 0.540708 117.856 3.48726 105.547 6.43382 104.162 17.6368 104.162 17.6368L110.505 15.3828C110.505 15.3828 121.878 4.58691 134.065 20.3889 146.246 36.1849 146.988 56.8472 146.988 56.8472L146.994 56.8533C140.444 60.7416 135.93 67.7525 135.602 75.93 135.092 88.7672 145.086 99.5935 157.923 100.104 170.767 100.614 181.587 90.6202 182.103 77.783 182.462 68.7124 177.565 60.6626 170.141 56.5313ZM148.561 138.476C162.613 149.096 167.455 152.844 167.455 152.844L98.822 153.081C98.822 153.081 98.822 152.844 104.211 140.979 110.219 127.747 134.509 127.862 148.561 138.476" fill="#FFFFFF" transform="matrix(1.00233 0 0 1 168.715 208.719)"/><path d="M319.455 275.949 586.954 275.949 586.954 274.072 319.455 274.072ZM620.872 89.3505C619.931 88.2569 618.558 87.6311 617.112 87.6311 617.106 87.6311 617.106 87.6311 617.1 87.6311L351.63 88.0807C349.188 88.0807 347.128 89.8304 346.734 92.2363L316.594 274.23C316.417 275.324 316.721 276.429 317.438 277.274 318.155 278.118 319.2 278.604 320.306 278.604L591.188 278.604C593.059 278.604 594.627 277.256 594.906 275.397L622.027 93.3359C622.239 91.9021 621.82 90.4501 620.872 89.3505ZM623.88 93.6093 596.753 275.676C596.34 278.459 594.001 280.476 591.188 280.476L320.306 280.476C318.647 280.476 317.08 279.753 316.01 278.489 314.935 277.219 314.479 275.561 314.747 273.926L344.881 91.9325C345.433 88.6153 348.271 86.2095 351.624 86.2034L617.1 85.7539C617.1 85.7539 617.106 85.7539 617.112 85.7539 619.104 85.7539 620.988 86.6166 622.294 88.1293 623.594 89.636 624.177 91.6348 623.88 93.6093ZM98.5668 152.832C99.0346 153.057 99.5935 152.856 99.8123 152.389L105.055 141.38C106.611 138.124 109.18 135.997 111.872 134.588 111.939 134.6 111.999 134.624 112.066 134.624 112.413 134.624 112.728 134.418 112.893 134.096 114.363 133.427 115.833 132.941 117.17 132.613 126.993 130.213 139.667 132.935 147.996 139.229 155.973 145.256 162.54 150.274 166.726 153.488 166.896 153.622 167.097 153.683 167.297 153.683 167.577 153.683 167.856 153.555 168.045 153.318 168.355 152.905 168.282 152.316 167.869 152 164.989 149.788 160.961 146.708 156.143 143.051L161.277 130.56 190.894 131.738C199.236 132.066 204.211 130.906 207.073 127.972 210.378 124.575 210.712 119.12 210.159 110.839L209.23 96.8049 220.633 92.5279C220.986 92.3942 221.229 92.0662 221.241 91.6895 221.259 91.3128 221.046 90.9665 220.712 90.8025 220.627 90.766 212.358 86.6773 205.42 70.6444 203.719 66.7197 202.456 62.2239 201.113 57.4669 196.806 42.2177 191.927 24.9333 170.463 16.5736 169.989 16.3853 169.442 16.6222 169.254 17.1082 169.065 17.5882 169.302 18.135 169.782 18.3172 190.378 26.3428 195.123 43.1473 199.309 57.9773 200.669 62.795 201.951 67.3455 203.701 71.3917 209.09 83.834 215.263 89.3626 218.191 91.4404L207.917 95.2922C207.535 95.438 207.286 95.8207 207.316 96.2278L208.288 110.961C208.804 118.713 208.549 123.767 205.73 126.665 203.276 129.187 198.713 130.177 190.967 129.867L160.694 128.658C160.28 128.64 159.94 128.877 159.788 129.241L154.6 141.878C152.862 140.56 151.04 139.175 149.126 137.729 140.238 131.015 127.218 128.233 116.72 130.791 115.736 131.034 114.806 131.331 113.901 131.659L121.228 113.652C121.422 113.172 121.191 112.625 120.712 112.431 120.232 112.236 119.691 112.467 119.49 112.947L111.453 132.704C107.741 134.545 104.976 137.2 103.366 140.578L98.1233 151.587C97.8985 152.054 98.099 152.613 98.5668 152.832ZM110.019 14.5627C110.876 13.8093 115.074 10.4314 120.912 10.8871 125.857 11.2698 130.529 14.271 134.806 19.8179 145.153 33.2262 147.376 50.2737 147.82 55.3345 151.404 53.4876 155.499 52.5033 159.813 52.6674 163.215 52.8071 166.423 53.6455 169.308 55.0368 168.804 28.8094 149.12 2.83112 141.623 2.24789 133.47 1.6039 130.043 1.53099 118.075 4.39857 109.15 6.5371 106.295 13.141 105.438 16.1909ZM175.256 61.7075C171.21 57.3211 165.7 54.7816 159.74 54.5386 159.436 54.5264 159.132 54.5204 158.828 54.5204 153.203 54.5204 147.862 56.6103 143.701 60.4499 139.32 64.4961 136.775 70.0065 136.538 75.9664 136.046 88.2691 145.657 98.6762 157.96 99.1683 170.244 99.6786 180.675 90.0491 181.161 77.7404 181.404 71.7805 179.302 66.0879 175.256 61.7075ZM110.821 16.2698 103.05 19.022 103.239 17.5214C103.251 17.3999 104.849 5.64402 117.637 2.57596 129.885-0.352371 133.403-0.273391 141.775 0.376674 151.076 1.10572 171.186 29.4169 171.198 56.0392 178.586 60.4378 183.403 68.6456 183.039 77.8194 182.516 90.8268 171.769 101.058 158.859 101.058 158.537 101.058 158.215 101.052 157.887 101.039 144.551 100.511 134.132 89.229 134.667 75.8935 134.995 67.6006 139.472 60.4499 146.022 56.343 145.797 53.0319 144.102 34.9395 133.318 20.96 129.387 15.8567 125.159 13.0985 120.766 12.7583 115.146 12.3209 111.191 16.0268 111.155 16.0633ZM241.18 364.911 259.959 364.911 260.232 365.361C268.185 378.344 282.177 398.477 288.058 400.902 286.83 386.4 274.449 370.652 274.321 370.494L275.785 369.328C276.332 370.008 288.841 385.926 289.959 401.078 295.342 400.44 296.442 393.903 296.587 392.767 293.228 378.295 285.056 369.067 284.971 368.975L286.369 367.724C286.691 368.082 293.829 376.144 297.62 389.31 299.935 379.462 298.671 359.625 282.152 352.019 265.056 344.151 248.221 344.656 244.619 344.868ZM258.914 366.788 238.963 366.788 243.015 343.125 243.726 343.052C243.926 343.04 263.258 341.26 282.936 350.318 302.462 359.303 301.952 384.31 298.459 392.943 298.058 396.503 295.621 403.016 289.109 403.016 281.557 403.016 262.225 372.165 258.914 366.788ZM598.09 622.829 531.364 601.516 531.182 601.273 501.236 560.726 459.012 585.878 514.153 636.012C526.753 625.441 537.652 626.176 552.64 627.191 558.339 627.58 564.785 628.029 572.209 627.89 592.002 627.543 596.899 624.244 598.09 622.829ZM462.184 591.298 456.989 586.577 438.107 597.179 392.524 555.732 374.212 675.672 447.293 675.672ZM446.922 677.55 406.412 677.55C406.533 681.602 406.886 697.744 405.677 715.089 404.571 730.97 402.463 739.294 401.576 742.228L460.422 743.65C458.283 742.908 455.884 741.936 453.496 740.685 443.939 735.667 439.31 728.546 440.118 720.089 441.758 702.86 445.884 682.519 446.922 677.55ZM454.912 443.97C431.728 420.786 406.965 423.951 400.974 425.154L471.88 518.788C473.417 509.031 478.314 467.372 454.912 443.97ZM375.47 378.994 377.202 366.472 364.51 366.472 357.572 398.982C362.062 396.649 374.024 389.498 375.47 378.994ZM379.055 366.734 377.329 379.249C376.983 381.776 376.09 384.103 374.887 386.223 404.194 387.846 427.73 368.89 434.334 362.967 441.206 356.806 443.873 351.393 443.447 348.969 443.326 348.295 442.98 348.082 442.737 347.985 441.339 347.432 434.814 352.487 428.447 359.012L426.837 360.658 426.837 360.433C421.849 364.079 411.066 367.226 410.549 367.378L410.027 365.573C413.745 364.498 423.757 361.114 426.783 358.034 426.722 357.56 426.564 357.165 426.236 356.861 423.812 354.692 414.383 355.701 401.327 357.098 387.117 358.623 380.719 364.814 379.055 366.734ZM532.512 599.919 600.332 621.583 600.332 622.264C600.332 623.436 598.977 629.299 572.239 629.761 564.748 629.882 558.254 629.451 552.518 629.062 537.172 628.029 527.032 627.337 514.748 637.962L514.116 638.509 463.824 592.786 449.195 675.672 449.243 675.672 449.006 676.748 448.867 677.55 448.836 677.55C447.961 681.693 443.666 702.629 441.983 720.266 440.209 738.862 468.095 743.802 468.375 743.85L468.198 745.709 398.945 744.038 399.419 742.799C399.443 742.72 402.433 734.67 403.812 714.956 405.021 697.604 404.656 681.462 404.535 677.55L372.031 677.55 390.865 554.177 361.721 523.211C351.788 529.377 232.832 601.656 122.953 601.656 89.8608 601.656 44.8788 593.126 18.5117 552.5 2.75214 528.211 1.1604 503.569 1.14824 503.326L3.01946 503.217C3.03161 503.46 4.60513 527.676 20.1277 551.552 46.0452 591.413 90.3468 599.779 122.953 599.779 231.563 599.779 349.2 528.752 360.488 521.771L290.403 433.581 291.867 432.414 362.59 521.4 392.518 553.199 438.368 594.882 464.468 580.234 500.106 559.22 471.546 521.449 398.623 425.148 371.867 390.488C365.865 397.432 357.159 401.302 356.63 401.533L354.96 402.262 362.991 364.601 378.459 364.601C381.15 361.879 387.912 356.649 401.132 355.233 415.671 353.678 424.45 352.742 427.481 355.47 427.822 355.774 428.095 356.12 428.295 356.503 432.135 352.681 440.361 345.02 443.429 346.241 444.425 346.642 445.088 347.493 445.288 348.641 445.944 352.323 442.129 358.495 435.586 364.364 429.116 370.166 406.673 388.21 378.368 388.21 376.843 388.21 375.3 388.143 373.739 388.034 373.52 388.35 373.301 388.666 373.064 388.976L399.723 423.508C401.722 423.022 408.32 421.716 417.384 422.815 427.256 424.006 442.007 428.417 456.236 442.645 482.129 468.539 474.341 515.872 473.435 520.841L501.728 558.254 501.734 558.254 502.16 558.831 502.864 559.76 502.852 559.766ZM198.847 60.7233C194.746 61.4038 191.484 66.2337 191.35 66.4402 191.064 66.8655 191.18 67.4488 191.611 67.7343 191.769 67.8437 191.951 67.8923 192.128 67.8923 192.431 67.8923 192.729 67.7465 192.905 67.4791 192.936 67.4366 195.858 63.1231 199.157 62.5702 199.667 62.4852 200.013 62.0052 199.928 61.4949 199.843 60.9846 199.363 60.6322 198.847 60.7233ZM195.499 102.236C197.194 101.926 202.723 103.482 205.803 104.545 206.289 104.709 206.824 104.448 206.994 103.962 207.158 103.47 206.897 102.935 206.411 102.771 205.548 102.473 197.899 99.8852 195.165 100.389 194.072 100.59 193.397 101.368 193.403 102.419 193.422 104.818 196.921 107.953 203.379 109.029 203.428 109.041 203.476 109.041 203.531 109.041 203.981 109.041 204.375 108.719 204.454 108.257 204.539 107.747 204.193 107.267 203.683 107.182 197.711 106.185 195.281 103.397 195.275 102.406 195.275 102.321 195.275 102.279 195.499 102.236ZM155.116 352.487C152.911 382.767 161.66 410.385 166.836 418.435L165.262 419.45C159.138 409.923 151.088 382.007 153.245 352.353 155.414 322.693 163.786 245.961 163.871 245.19L165.736 245.396C165.651 246.168 157.279 322.863 155.116 352.487" fill="#224C8D" transform="matrix(1.00233 0 0 1 168.715 208.719)"/></g></svg>