<svg width="734" height="602" xmlns="http://www.w3.org/2000/svg" xmlns:xlink="http://www.w3.org/1999/xlink" xml:space="preserve" overflow="hidden"><defs><clipPath id="clip0"><rect x="138" y="370" width="734" height="602"/></clipPath><clipPath id="clip1"><rect x="148" y="398" width="723" height="566"/></clipPath><clipPath id="clip2"><rect x="152" y="501" width="717" height="471"/></clipPath></defs><g clip-path="url(#clip0)" transform="translate(-138 -370)"><path d="M236.43 96.7654 131.191 167.405C131.191 167.405 108.601 146.239 91.4407 111.923 87.7249 104.498 85.5892 97.0258 84.7847 89.6754 80.8317 90.0979 63.2948 90.7924 50.4287 72.1211 35.8435 50.9611 52.7148 6.05977 85.8902 0.630864 107.154-2.85336 118.539 8.93629 123.979 17.8494 149.839 2.33825 178.263 9.85075 213.84 32.423 252.161 56.7257 236.43 96.7654 236.43 96.7654" fill="#100F0D" transform="matrix(1.00005 0 0 1 148.199 372.815)"/><path d="M113.787 119.048 113.787 113.336C113.787 107.264 117.098 101.945 122 99.0515 123.186 79.7378 130.514 51.2563 151.373 37.3541 178.535 19.2443 208.116 27.0925 221.399 36.7522 234.676 46.412 230.451 51.2389 230.451 51.2389 219.946 32.3304 176.364 28.4931 158.613 42.1811 137.488 58.4852 134.467 95.3069 134.467 95.3069 134.467 95.3069 134.264 96.013 133.911 97.1416 137.957 98.0329 141.447 100.406 143.802 103.659 148.901 102.298 187.674 90.7982 197.287 52.6106L235.891 95.793C235.891 95.793 228.454 147.275 225.022 167.862 221.59 188.455 207.867 188.739 197.287 188.455 194.167 188.368 191.03 188.183 188.148 187.969L194.711 226.486 169.257 260.235 127.221 217.625 130.653 166.433 125.015 145.602C118.504 143.357 113.787 137.17 113.787 129.923L113.787 124.107C113.602 122.498 113.579 120.813 113.787 119.048ZM316.567 342.178 344.006 340.464 327.135 386.257ZM393.162 182.123C393.162 182.123 392.919 182.783 392.56 183.842 392.496 183.408 392.438 182.98 392.375 182.557 392.855 182.297 393.162 182.123 393.162 182.123ZM708.189 255.24 399.731 253.729C399.129 243.057 398.296 232.743 397.352 223.083L398.307 230.167C398.307 230.167 432.223 206.686 404.87 166.705 402.741 163.591 398.261 163.243 395.627 165.941 394.099 167.503 392.357 169.321 390.615 171.207 389.087 161.831 388.017 156.385 388.017 156.385L270.762 170.108C283.854 198.097 286.957 229.646 287.686 260.547L214.708 225.306 223.488 368.049 207.936 392.149 111.756 223.587C111.756 223.587 58.6704 262.932 24.3491 291.245-9.9665 319.553-1.29646 386.546 19.2038 421.649 40.2596 457.707 84.9179 540.049 114.134 571.911 130.67 589.945 151.014 592.127 166.427 586.496L375.145 586.496 357.868 514.432 505.242 514.432 513.836 548.158C517.899 564.115 505.838 579.637 489.366 579.637L423.189 579.637C419.398 579.637 416.324 582.705 416.324 586.496L575.453 586.496C591.832 586.496 603.876 571.141 599.97 555.23L589.957 514.432 620.099 514.432C625.511 514.432 630.355 511.081 632.271 506.017L720.291 272.84C723.492 264.361 717.253 255.286 708.189 255.24" fill="#FFFFFF" transform="matrix(1.00005 0 0 1 148.199 372.815)"/><g clip-path="url(#clip1)"><path d="M719.105 272.395 631.079 505.571C629.366 510.109 624.955 513.159 620.099 513.159L590.952 513.159 562.315 396.478 473.889 396.478 503.604 513.159 298.567 513.159C294.672 513.159 291.164 511.33 288.942 508.135 286.714 504.946 286.21 501.022 287.553 497.37L374.045 262.613C375.741 258.012 380.157 254.933 385.059 254.933 385.076 254.933 385.094 254.933 385.111 254.933L708.177 256.513C712.078 256.53 715.58 258.388 717.791 261.595 719.996 264.813 720.476 268.748 719.105 272.395ZM594.315 576.049C589.743 581.883 582.867 585.228 575.453 585.228L417.742 585.228C418.321 582.757 420.544 580.905 423.189 580.905L489.366 580.905C497.613 580.905 505.247 577.172 510.306 570.661 515.364 564.149 517.101 555.832 515.069 547.845L477.159 399.025 560.318 399.025 598.737 555.537C600.502 562.737 598.893 570.215 594.315 576.049ZM318.621 342.884 342.432 341.055 327.743 380.927ZM289.642 323.13C293.312 322.916 296.292 321.619 298.33 320.369 298.191 321.579 298.254 322.887 298.793 323.963 299.186 324.751 299.898 325.243 300.795 325.347 304.135 325.752 309.708 320.676 313.482 316.214 319.808 308.736 315.073 296.304 311.612 287.223L310.848 285.203C308.267 278.321 300.378 276.186 295.638 275.52 303.573 270.085 313.945 262.341 313.655 259.21 313.592 258.487 313.146 257.896 312.446 257.595 308.973 256.131 297.704 260.57 289.625 265.663 289.208 230.37 286.031 200.574 272.649 171.167L387.004 157.78C387.467 160.002 388.508 165.2 389.4 170.64 378.883 182.054 379.19 184.259 379.318 185.162 379.445 186.065 379.954 186.776 380.747 187.164 382.987 188.258 387.663 186.366 390.928 184.751 389.753 188.449 388.057 194.613 388.462 198.277 389.006 203.133 393.133 208.255 394.238 209.551L397.045 230.341C397.063 230.468 397.138 230.578 397.19 230.694L396.895 230.717C397.56 238.351 398.041 245.638 398.33 252.456L385.123 252.392C385.099 252.392 385.082 252.392 385.059 252.392 379.098 252.392 373.715 256.137 371.655 261.734L343.399 338.427 289.005 342.6C289.202 340.024 289.555 333.953 289.642 323.13ZM281.03 318.818C280.7 318.656 280.318 318.65 279.982 318.795 279.647 318.94 279.386 319.223 279.276 319.571L271.087 344.649 255.656 313.789C258.955 309.147 279.641 280.052 283.831 273.766 287.998 267.516 306.484 259.262 310.935 259.806 309.448 262.341 299.91 269.64 291.216 275.439 290.753 275.746 290.545 276.325 290.707 276.863 290.869 277.401 291.361 277.766 291.922 277.766 292.056 277.766 305.373 277.864 308.464 286.094L309.234 288.132C312.469 296.616 316.897 308.238 311.543 314.57 305.906 321.232 301.773 323.113 301.067 322.829 300.43 321.55 301.102 318.945 301.675 317.603 301.912 317.036 301.715 316.376 301.194 316.04 300.679 315.699 299.996 315.785 299.574 316.237 299.499 316.312 292.079 324.068 281.03 318.818ZM186.748 567.136C182.586 577.12 171.514 585.043 158.532 587.318 149.347 588.921 131.486 588.956 115.072 571.054 91.0181 544.818 56.2106 483.804 33.1754 443.434 28.3137 434.903 23.9497 427.263 20.2976 421.012-0.23151 385.846-8.31699 319.843 25.1593 292.223 47.0602 274.16 76.8787 251.397 95.3995 237.431 98.056 249.921 116.212 335.29 122.527 363.708 125.415 376.707 136.319 388.578 154.053 398.018 165.211 403.956 175.901 407.238 179.102 408.152L178.679 435.378 179.484 435.389 148.525 484.435 82.2786 362.712 80.0446 363.928 148.363 489.458 224.478 368.859 224.785 368.384 224.779 368.344 254.105 316.382 270.195 348.556C270.195 348.561 270.195 348.561 270.195 348.561L283.634 375.434C277.98 386.396 195.001 547.33 186.748 567.136ZM111.362 225.468 206.611 392.404 181.267 432.559 181.677 406.207 180.711 405.959C180.219 405.831 131.625 392.936 125.01 363.158 118.446 333.623 99.0805 242.518 97.6451 235.741 104.307 230.723 109.244 227.042 111.362 225.468ZM216.109 227.389 233.374 235.671 259.76 303.608C257.456 306.866 255.535 309.569 254.366 311.207L254.244 310.964 224.495 363.679ZM287.026 261.415C287.061 263.377 287.09 265.363 287.107 267.359 284.694 269.078 282.743 270.809 281.713 272.36 278.946 276.51 268.928 290.69 261.525 301.125L236.731 237.286ZM396.542 166.826C397.537 165.802 398.926 165.275 400.362 165.414 401.768 165.535 403.03 166.27 403.817 167.422 426.875 201.124 405.739 222.446 399.274 227.817L397.028 211.178C397.856 211.461 398.678 211.612 399.499 211.612 400.24 211.612 400.981 211.49 401.705 211.264 406.555 209.713 409.107 203.451 409.211 203.185L406.85 202.241C406.248 203.74 404.014 207.85 400.929 208.839 399.447 209.314 397.914 209.03 396.264 208 395.622 207.259 391.478 202.346 390.991 197.999 390.459 193.207 394.314 182.667 394.354 182.563 394.539 182.059 394.389 181.498 393.984 181.151 393.746 180.954 393.457 180.85 393.162 180.85 392.942 180.85 392.728 180.908 392.531 181.018 387.889 183.668 382.686 185.532 381.841 184.814 381.824 184.531 382.113 181.614 396.542 166.826ZM719.886 260.154C717.195 256.247 712.935 253.99 708.195 253.966L400.877 252.467C400.587 245.702 400.119 238.467 399.459 230.896 403.354 227.916 431.963 204.059 405.918 165.987 404.697 164.198 402.752 163.07 400.582 162.879 398.382 162.688 396.252 163.475 394.719 165.049 393.59 166.207 392.56 167.278 391.588 168.308 390.476 161.825 389.272 156.182 389.255 156.119 389.116 155.476 388.508 155.048 387.866 155.117L270.612 168.846C270.207 168.892 269.848 169.135 269.645 169.494 269.449 169.847 269.437 170.281 269.611 170.652 282.483 198.178 286.169 226.052 286.957 258.562L235.382 233.813 235.341 233.709 235.243 233.75 213.307 223.222 222.192 367.713 208 389.701 112.149 221.711 110.997 222.568C110.465 222.961 57.4897 262.254 23.5388 290.261-10.9678 318.731-2.8823 386.35 18.1041 422.292 21.7504 428.537 26.1085 436.171 30.9702 444.69 54.0576 485.164 88.9519 546.329 113.197 572.773 126.422 587.196 140.59 590.524 150.852 590.524 153.96 590.524 156.715 590.217 158.972 589.824 172.782 587.399 184.606 578.879 189.092 568.114 192.917 558.929 212.972 519.103 233.866 478.08L263.094 585.819 265.548 585.153 235.874 475.765 234.907 476.025C259.893 426.997 285.712 376.95 286.193 376.024L286.488 375.451 272.701 347.89 281.256 321.695C283.333 322.534 285.278 322.951 287.101 323.101 286.98 337.871 286.349 343.787 286.337 343.844 286.297 344.221 286.424 344.597 286.69 344.869 286.928 345.118 287.258 345.257 287.605 345.257 287.64 345.257 287.669 345.257 287.703 345.257L316.052 343.08 325.943 384.33 326.539 384.185 285.168 496.491C283.53 500.935 284.144 505.71 286.852 509.594 289.561 513.472 293.827 515.7 298.567 515.7L357.434 515.7 375.011 590.866 377.489 590.281 360.044 515.7 503.87 515.7 503.87 514.201 512.604 548.47C514.438 555.693 512.87 563.212 508.298 569.098 503.719 574.984 496.82 578.364 489.366 578.364L423.189 578.364C418.703 578.364 415.051 582.01 415.051 586.502L415.051 587.769 575.453 587.769C583.654 587.769 591.259 584.071 596.323 577.617 601.382 571.164 603.164 562.893 601.208 554.929L591.577 515.7 620.099 515.7C626.009 515.7 631.374 511.99 633.458 506.469L721.483 273.292C723.156 268.853 722.572 264.06 719.886 260.154ZM205.726 116.131C205.529 115.46 205.905 114.748 206.582 114.551 207.022 114.418 217.428 111.403 223.679 117.196 224.194 117.671 224.229 118.475 223.749 118.99 223.5 119.262 223.158 119.401 222.817 119.401 222.504 119.401 222.197 119.286 221.954 119.06 216.774 114.268 207.398 116.959 207.306 116.988 206.64 117.179 205.922 116.803 205.726 116.131ZM165.576 117.781C165.177 117.202 165.315 116.409 165.894 116.01 166.346 115.697 177.094 108.387 188.947 112.861 189.607 113.11 189.937 113.845 189.688 114.499 189.439 115.159 188.704 115.489 188.05 115.24 177.464 111.252 167.445 118.03 167.347 118.099 167.127 118.255 166.872 118.325 166.624 118.325 166.218 118.325 165.819 118.134 165.576 117.781ZM195.551 165.489C195.452 166.184 194.804 166.676 194.115 166.577 193.722 166.519 184.542 165.206 178.795 161.443 177.875 160.842 177.337 160.847 177.192 160.934 177.059 161.009 176.926 161.339 176.949 161.883 177.036 163.834 179.264 168.487 187.101 172.093 187.737 172.388 188.015 173.141 187.726 173.783 187.512 174.246 187.048 174.524 186.568 174.524 186.389 174.524 186.209 174.483 186.036 174.408 178.216 170.808 174.564 165.576 174.408 161.988 174.344 160.5 174.9 159.308 175.93 158.717 176.596 158.341 178.043 157.913 180.184 159.314 185.451 162.763 194.376 164.042 194.463 164.054 195.163 164.152 195.643 164.795 195.551 165.489ZM191.522 153.37C191.603 152.669 192.229 152.166 192.935 152.253L202.797 153.41C203.96 153.543 205.06 153.051 205.72 152.079 206.374 151.101 206.432 149.903 205.87 148.867L199.394 136.967C199.058 136.348 199.284 135.578 199.897 135.242 200.522 134.907 201.292 135.132 201.628 135.752L208.104 147.651C209.117 149.509 209.007 151.749 207.827 153.503 206.767 155.065 205.025 155.98 203.167 155.98 202.947 155.98 202.722 155.968 202.502 155.939L192.639 154.782C191.939 154.695 191.441 154.064 191.522 153.37ZM115.055 113.336C115.055 104.891 121.925 98.0213 130.375 98.0213 135.046 98.0213 139.224 100.128 142.037 103.439 141.973 103.647 141.945 103.867 141.997 104.093 142.136 104.677 142.656 105.042 143.229 105.048 144.781 107.444 145.689 110.28 145.689 113.336L145.689 129.923C145.689 138.368 138.819 145.238 130.375 145.238 121.925 145.238 115.055 138.368 115.055 129.923ZM152.079 38.4133C163.741 30.6346 175.872 27.7407 186.91 27.7407 201.026 27.7407 213.354 32.4751 220.652 37.7766 227.053 42.4358 229.033 45.7811 229.606 47.6795 224.646 41.3824 215.779 36.6885 204.18 34.2982 186.516 30.6519 167.891 33.4185 157.838 41.174 138.269 56.2743 133.975 87.8754 133.303 94.1551 131.486 94.3693 127.614 94.8959 123.881 95.8741 125.195 83.9802 130.641 52.7032 152.079 38.4133ZM197.901 55.2093 234.549 96.1982C233.709 101.974 226.961 148.496 223.772 167.654 220.67 186.267 209.476 187.512 197.322 187.182 194.358 187.101 191.372 186.927 188.6 186.724 188.391 186.638 188.16 186.591 187.917 186.626 187.882 186.638 187.853 186.655 187.818 186.666 181.226 186.157 176.075 185.486 176 185.48 175.288 185.387 174.668 185.874 174.576 186.574 174.483 187.268 174.975 187.905 175.67 187.998 175.745 188.009 180.665 188.646 187.06 189.155L193.363 226.162 169.13 258.29 128.529 217.139 131.92 166.519C131.932 166.386 131.914 166.247 131.885 166.12L127.174 147.478C128.216 147.669 129.281 147.784 130.375 147.784 132.632 147.784 134.785 147.345 136.776 146.575L159.672 176.735 161.704 175.195 139.132 145.469C144.555 142.402 148.23 136.591 148.23 129.923L148.23 113.336C148.23 110.077 147.339 107.027 145.805 104.394 154.811 101.621 188.032 89.2413 197.901 55.2093ZM124.356 146.719 129.368 166.548 125.947 217.538C125.924 217.903 126.057 218.256 126.312 218.516L168.354 261.126C168.591 261.369 168.921 261.508 169.257 261.508 169.286 261.508 169.315 261.508 169.344 261.502 169.708 261.479 170.05 261.294 170.276 260.999L195.724 227.256C195.933 226.972 196.025 226.619 195.962 226.272L189.67 189.352C192.119 189.52 194.694 189.659 197.252 189.728 198.323 189.757 199.475 189.786 200.684 189.786 210.153 189.786 222.979 187.876 226.278 168.07 229.675 147.703 237.078 96.4934 237.147 95.9782 237.205 95.6078 237.089 95.2316 236.84 94.948L198.23 51.7656C197.918 51.4126 197.437 51.2679 196.98 51.3778 196.523 51.4878 196.164 51.8467 196.048 52.3039 187.077 87.9506 151.668 100.041 144.3 102.188 142.101 99.4393 139.109 97.3499 135.665 96.2792L135.74 95.411C135.769 95.0464 138.947 58.9656 159.395 43.1882 168.748 35.9709 186.95 33.3374 203.671 36.7869 216.086 39.3451 225.439 44.8377 229.34 51.8582L230.219 53.4383 231.412 52.0782C231.533 51.9393 232.586 50.6544 232.32 48.3103 231.904 44.5599 228.477 40.329 222.145 35.722 208.567 25.8481 178.326 17.8552 150.667 36.295 127.058 52.0377 122.116 87.123 121.161 97.4946L121.109 98.1023C115.963 101.239 112.514 106.888 112.514 113.336L112.514 129.923C112.514 137.656 117.462 144.242 124.356 146.719" fill="#100F0D" transform="matrix(1.00005 0 0 1 148.199 372.815)"/></g><path d="M112.855 222.666C112.855 222.666 122.052 210.292 124.628 199.996L166.664 222.446 173.812 236.742 175.814 222.73 193.687 203.428 213.342 223.94 222.244 367.985 208.249 389.29 112.855 222.666" fill="#DA4944" transform="matrix(1.00005 0 0 1 148.199 372.815)"/><g clip-path="url(#clip2)"><path d="M4.85013 599.136 719.788 599.136 719.788 586.322 4.85013 586.322ZM528.479 316.972C515.197 316.972 504.426 327.743 504.426 341.026 504.426 354.314 515.197 365.085 528.479 365.085 541.762 365.085 552.533 354.314 552.533 341.026 552.533 327.743 541.762 316.972 528.479 316.972ZM177.777 129.559C176.249 129.559 175.016 130.792 175.016 132.314 175.016 133.836 176.249 135.069 177.777 135.069 179.299 135.069 180.531 133.836 180.531 132.314 180.531 130.792 179.299 129.559 177.777 129.559ZM216.352 129.559C214.824 129.559 213.591 130.792 213.591 132.314 213.591 133.836 214.824 135.069 216.352 135.069 217.874 135.069 219.107 133.836 219.107 132.314 219.107 130.792 217.874 129.559 216.352 129.559ZM167.7 184.259 165.113 185.978C164.117 186.638 162.769 186.36 162.109 185.37L157.867 178.969C157.207 177.973 157.479 176.625 158.474 175.965L161.061 174.252C162.051 173.592 163.4 173.864 164.06 174.859L168.308 181.261C168.968 182.25 168.69 183.599 167.7 184.259" fill="#100F0D" transform="matrix(1.00005 0 0 1 148.199 372.815)"/></g></g></svg>