<?xml version="1.0" encoding="UTF-8"?>
<svg width="330px" height="303px" viewBox="0 0 330 303" version="1.1"
    xmlns="http://www.w3.org/2000/svg"
    xmlns:xlink="http://www.w3.org/1999/xlink">
    <title>Group 261</title>
    <desc>Created with Sketch.</desc>
    <defs>
        <clipPath id="clip0">
            <rect x="1327" y="108" width="485" height="408"/>
        </clipPath>
        <clipPath id="clip1">
            <rect x="1409" y="214" width="393" height="302"/>
        </clipPath>
    </defs>
    <g clip-path="url(#clip0)" transform="translate(-1327 -108)">
        <path d="M267.387 228.631 253.956 166.57C253.956 166.57 267.387 147.117 261.828 133.223 256.27 119.329 240.524 139.707 240.524 139.707 240.524 139.707 235.582 136.115 233.577 129.983 230.624 120.947 229.151 108.216 219.22 108.216 202.545 108.216 162.717 117.94 162.717 117.94L166.692 180.747C168.073 202.587 191.711 215.567 210.884 205.012L210.884 255.031 228.482 286.989 254.418 272.632ZM267.387 228.631 253.956 166.57C253.956 166.57 267.387 147.117 261.828 133.223 256.27 119.329 240.524 139.707 240.524 139.707 240.524 139.707 235.582 136.115 233.577 129.983 230.624 120.947 229.151 108.216 219.22 108.216 202.545 108.216 162.717 117.94 162.717 117.94L166.692 180.747C168.073 202.587 191.711 215.567 210.884 205.012L210.884 255.031 228.482 286.989 254.418 272.632ZM475.662 406.478 8.73361 406.478C4.42227 406.478 0.92577 402.982 0.92577 398.67L0.92577 8.72978C0.92577 4.41845 4.42227 0.921944 8.73361 0.921944L475.662 0.921944C479.974 0.921944 483.47 4.41845 483.47 8.72978L483.47 398.67C483.47 402.982 479.974 406.478 475.662 406.478" fill="#FFFFFF" transform="matrix(1 0 0 1.00099 1327.21 108)"/>
        <path d="M482.495 392.676 87.1907 405.552 468.696 405.552C476.007 405.552 481.993 399.856 482.495 392.676ZM482.544 167.557 482.544 29.9422 1.85154 29.9422 1.85154 166.608C5.81858 165.238 18.6761 162.182 39.3414 170.449 54.7467 176.612 60.0794 186.508 65.7259 196.99 69.3218 203.662 73.044 210.567 79.5895 217.342 89.6505 227.766 103.392 228.711 116.678 229.622 125.748 230.241 134.317 230.83 141.367 234.358 156.819 242.081 159.741 257.253 160.219 260.788 171.107 262.437 303.844 282.325 321.736 273.661 330.133 269.598 333.736 261.496 337.55 252.923 342.24 242.372 347.087 231.469 361.131 226.332 373.342 221.864 385.105 221.944 395.48 222.043 406.562 222.124 416.111 222.208 422.897 216.657 429.037 211.634 431.114 204.744 433.31 197.449 435.846 189.029 438.471 180.322 447.495 173.639 461.642 163.157 477.72 166.275 482.544 167.557ZM484.599 392.607 484.35 392.615C483.876 400.847 477.047 407.404 468.696 407.404L30.3209 407.404 25.6576 407.557 15.7993 407.435C15.2408 407.427 14.6861 407.389 14.1429 407.327 6.21261 406.539 0 399.837 0 391.708L0 15.6922C0 7.03891 7.04274-0.0038255 15.6998-0.0038255L468.696-0.0038255C477.353-0.0038255 484.396 7.03891 484.396 15.6922L484.396 168.127 484.599 168.199ZM292.394 70.0831C299.322 79.7195 305.06 100.806 283.274 103.843 289.64 122.844 284.517 142.01 273.638 157.308 266.098 167.913 260.547 175.384 256.901 180.181L253.956 166.57C253.956 166.57 267.387 147.117 261.828 133.223 256.27 119.329 240.524 139.707 240.524 139.707 240.524 139.707 235.582 136.115 233.577 129.983 230.624 120.947 229.151 108.216 219.22 108.216 202.545 108.216 162.717 117.94 162.717 117.94L162.859 120.186C162.205 119.134 161.834 118.223 161.788 117.477 161.095 105.205 167.117 85.0561 190.735 68.6179 207.571 56.8966 230.762 56.7168 250.325 66.6325 251.855 61.7244 255.405 55.1828 263.68 52.7919 277.574 48.7789 285.294 60.2018 292.394 70.0831" fill="#224C8D" transform="matrix(1 0 0 1.00099 1327.21 108)"/>
        <path d="M24.6439 405.648C24.6439 405.648 31.1854 329.44 87.9979 297.949 144.807 266.453 170.743 255.34 183.712 248.546 196.68 241.752 203.474 224.461 203.474 224.461L234.966 238.665 242.992 260.279 247.934 237.429 268.313 223.229C268.313 223.229 275.237 243.539 293.014 247.311 313.392 251.634 359.088 261.515 386.257 267.073 413.429 272.632 432.572 301.036 452.95 334.379 473.329 367.726 482.977 384.401 482.977 384.401L483.382 390.438C481.588 402.771 475.394 405.648 466.206 405.648L24.6439 405.648" fill="#DA4944" transform="matrix(1 0 0 1.00099 1327.21 108)"/>
        <path d="M48.7483 21.3577C45.6803 21.3577 43.1899 18.8712 43.1899 15.7993 43.1899 12.7313 45.6803 10.2447 48.7483 10.2447 51.8164 10.2447 54.3068 12.7313 54.3068 15.7993 54.3068 18.8712 51.8164 21.3577 48.7483 21.3577ZM32.7309 21.3577C29.6629 21.3577 27.1725 18.8712 27.1725 15.7993 27.1725 12.7313 29.6629 10.2447 32.7309 10.2447 35.799 10.2447 38.2894 12.7313 38.2894 15.7993 38.2894 18.8712 35.799 21.3577 32.7309 21.3577ZM21.8321 15.7993C21.8321 12.7313 19.3455 10.2447 16.2737 10.2447 13.2056 10.2447 10.719 12.7313 10.719 15.7993 10.719 18.8712 13.2056 21.3577 16.2737 21.3577 19.3455 21.3577 21.8321 18.8712 21.8321 15.7993ZM381.934 269.231 375.453 257.498C375.453 257.498 394.286 201.925 397.989 182.778 401.696 163.639 400.461 157.771 396.758 156.845 393.051 155.92 390.579 160.858 390.579 160.858 390.579 160.858 385.641 157.151 381.318 165.801 381.318 165.801 376.379 163.02 372.672 169.194 368.969 175.368 355.691 202.231 355.691 202.231 355.691 202.231 355.691 184.634 349.517 185.56 343.342 186.485 344.574 193.589 342.107 213.658 339.635 233.726 352.914 292.081 352.914 292.081ZM188.188 343.025C188.188 328.702 176.577 317.092 162.255 317.092 147.928 317.092 136.318 328.702 136.318 343.025 136.318 357.351 147.928 368.961 162.255 368.961 176.577 368.961 188.188 357.351 188.188 343.025ZM342.879 343.025C342.879 328.702 331.265 317.092 316.942 317.092 302.616 317.092 291.006 328.702 291.006 343.025 291.006 357.351 302.616 368.961 316.942 368.961 331.265 368.961 342.879 357.351 342.879 343.025ZM241.45 368.961C227.127 368.961 215.513 357.351 215.513 343.025 215.513 328.702 227.127 317.092 241.45 317.092 255.773 317.092 267.387 328.702 267.387 343.025 267.387 357.351 255.773 368.961 241.45 368.961" fill="#FFFFFF" transform="matrix(1 0 0 1.00099 1327.21 108)"/>
        <g clip-path="url(#clip1)">
            <path d="M181.669 205.839C190.51 210.697 200.984 210.926 209.978 206.527L210.265 228.799 212.116 228.772 211.818 205.555 231.703 194.71 230.819 193.08 211.791 203.463 211.791 203.455 210.437 204.197C201.711 209.002 191.29 209.006 182.56 204.216 173.834 199.423 168.245 190.624 167.614 180.686L163.689 118.659C169.259 117.328 204.106 109.141 219.22 109.141 226.73 109.141 229.021 117.355 231.236 125.3 231.71 127.01 232.181 128.694 232.697 130.27 234.771 136.616 239.767 140.304 239.981 140.457L240.708 140.989 241.255 140.273C243.795 136.991 251.523 128.617 256.695 129.344 258.535 129.604 259.935 130.985 260.968 133.567 266.274 146.838 253.324 165.854 253.19 166.046L252.965 166.375 265.811 225.402 267.616 225.012 254.943 166.761C256.771 164.014 268.026 146.226 262.689 132.882 261.404 129.669 259.472 127.863 256.947 127.511 250.624 126.647 242.628 135.683 240.387 138.399 239.009 137.201 235.903 134.122 234.457 129.696 233.952 128.146 233.489 126.486 233.019 124.803 230.731 116.593 228.137 107.29 219.22 107.29 202.625 107.29 164.129 116.643 162.496 117.041L161.742 117.225 165.766 180.804C166.436 191.378 172.381 200.739 181.669 205.839ZM187.262 343.025C187.262 329.234 176.042 318.017 162.255 318.017 148.464 318.017 137.244 329.234 137.244 343.025 137.244 356.816 148.464 368.036 162.255 368.036 176.042 368.036 187.262 356.816 187.262 343.025ZM189.117 343.025C189.117 357.837 177.063 369.887 162.255 369.887 147.442 369.887 135.392 357.837 135.392 343.025 135.392 328.216 147.442 316.166 162.255 316.166 177.063 316.166 189.117 328.216 189.117 343.025ZM341.953 343.025C341.953 329.234 330.733 318.017 316.942 318.017 303.151 318.017 291.931 329.234 291.931 343.025 291.931 356.816 303.151 368.036 316.942 368.036 330.733 368.036 341.953 356.816 341.953 343.025ZM343.805 343.025C343.805 357.837 331.755 369.887 316.942 369.887 302.13 369.887 290.08 357.837 290.08 343.025 290.08 328.216 302.13 316.166 316.942 316.166 331.755 316.166 343.805 328.216 343.805 343.025ZM266.461 343.025C266.461 329.234 255.241 318.017 241.45 318.017 227.659 318.017 216.439 329.234 216.439 343.025 216.439 356.816 227.659 368.036 241.45 368.036 255.241 368.036 266.461 356.816 266.461 343.025ZM268.313 343.025C268.313 357.837 256.262 369.887 241.45 369.887 226.638 369.887 214.587 357.837 214.587 343.025 214.587 328.216 226.638 316.166 241.45 316.166 256.262 316.166 268.313 328.216 268.313 343.025ZM175.33 130.901C175.839 130.962 176.302 130.61 176.371 130.105 176.436 129.596 176.084 129.133 175.575 129.065 175.273 129.023 168.142 128.112 165.07 131.18 164.711 131.544 164.711 132.129 165.07 132.488 165.254 132.672 165.491 132.76 165.728 132.76 165.965 132.76 166.203 132.672 166.382 132.488 168.391 130.48 173.525 130.664 175.33 130.901ZM214.266 124.596C214.488 124.134 214.293 123.579 213.834 123.357 201.405 117.382 192.097 124.792 192.006 124.864 191.608 125.189 191.55 125.771 191.872 126.165 192.055 126.391 192.319 126.509 192.591 126.509 192.794 126.509 193 126.44 193.172 126.303 193.517 126.023 201.688 119.577 213.03 125.029 213.489 125.251 214.044 125.055 214.266 124.596ZM168.276 151.979C168.467 151.979 168.662 151.922 168.827 151.8 168.873 151.765 173.131 148.663 177.893 150.529 178.368 150.713 178.907 150.48 179.094 150.005 179.282 149.527 179.045 148.992 178.57 148.804 172.824 146.555 167.924 150.158 167.717 150.315 167.308 150.621 167.228 151.199 167.534 151.608 167.714 151.853 167.993 151.979 168.276 151.979ZM195.227 149.248C195.299 149.198 202.296 144.084 209.32 147.488 209.779 147.71 210.333 147.523 210.559 147.06 210.781 146.601 210.59 146.046 210.131 145.824 202.07 141.911 194.435 147.526 194.117 147.767 193.708 148.074 193.628 148.651 193.934 149.064 194.113 149.305 194.393 149.435 194.672 149.435 194.867 149.435 195.062 149.374 195.227 149.248ZM181.688 174.592C182.205 174.592 182.721 174.496 183.222 174.297L191.772 170.904 191.087 169.183 182.537 172.576C181.715 172.905 180.831 172.744 180.169 172.147 179.515 171.554 179.267 170.69 179.508 169.841L183.524 155.709 181.742 155.2 177.725 169.332C177.293 170.854 177.756 172.461 178.93 173.525 179.707 174.225 180.69 174.592 181.688 174.592ZM198.318 186.535 198.903 188.291C199.197 188.191 206.217 185.797 209.825 179.783 212.522 175.284 211.642 173.161 210.873 172.293 209.806 171.088 207.9 170.973 205.643 171.975 201.539 173.8 191.875 177.713 191.78 177.756L192.472 179.469C192.572 179.431 202.262 175.506 206.397 173.67 207.824 173.035 209.006 172.981 209.484 173.521 210.016 174.121 210.008 175.873 208.237 178.83 204.985 184.244 198.383 186.512 198.318 186.535ZM170.743 338.243C170.231 338.243 169.818 338.656 169.818 339.169L169.818 343.916C169.818 348.193 166.34 351.67 162.06 351.67 157.783 351.67 154.301 348.193 154.301 343.916L154.301 338.935C154.301 338.423 153.888 338.009 153.376 338.009 152.863 338.009 152.45 338.423 152.45 338.935L152.45 343.916C152.45 348.897 156.275 352.956 161.134 353.43L161.134 355.997 157.698 355.997C157.186 355.997 156.773 356.41 156.773 356.919 156.773 357.431 157.186 357.848 157.698 357.848L167.117 357.848C167.629 357.848 168.043 357.431 168.043 356.919 168.043 356.41 167.629 355.997 167.117 355.997L162.985 355.997 162.985 353.43C167.847 352.956 171.673 348.897 171.673 343.916L171.673 339.169C171.673 338.656 171.256 338.243 170.743 338.243ZM157.622 343.836C157.622 346.326 159.646 348.354 162.136 348.354 164.626 348.354 166.654 346.326 166.654 343.836L166.654 335.037C166.654 332.547 164.626 330.523 162.136 330.523 159.646 330.523 157.622 332.547 157.622 335.037ZM155.77 343.836 155.77 335.037C155.77 331.525 158.624 328.668 162.136 328.668 165.648 328.668 168.505 331.525 168.505 335.037L168.505 343.836C168.505 347.347 165.648 350.205 162.136 350.205 158.624 350.205 155.77 347.347 155.77 343.836ZM328.289 337.7 312.543 337.7 312.543 349.509 328.289 349.509ZM310.034 343.258 304.207 339.046 304.207 347.466ZM330.14 336.774 330.14 350.435C330.14 350.947 329.727 351.364 329.215 351.364L311.617 351.364C311.105 351.364 310.688 350.947 310.688 350.435L310.688 345.071 303.821 350.029C303.66 350.144 303.473 350.205 303.278 350.205 303.136 350.205 302.991 350.171 302.857 350.102 302.547 349.945 302.352 349.627 302.352 349.279L302.352 337.237C302.352 336.889 302.547 336.571 302.857 336.41 303.167 336.257 303.538 336.284 303.821 336.487L310.688 341.445 310.688 336.774C310.688 336.261 311.105 335.848 311.617 335.848L329.215 335.848C329.727 335.848 330.14 336.261 330.14 336.774ZM250.949 334.612C250.585 334.249 250 334.249 249.637 334.612L241.45 342.799 233.263 334.612C232.9 334.249 232.315 334.249 231.951 334.612 231.592 334.972 231.592 335.557 231.951 335.921L240.142 344.107 231.951 352.294C231.592 352.657 231.592 353.243 231.951 353.606 232.135 353.786 232.372 353.874 232.609 353.874 232.847 353.874 233.084 353.786 233.263 353.606L241.45 345.416 249.637 353.606C249.816 353.786 250.057 353.874 250.291 353.874 250.528 353.874 250.765 353.786 250.949 353.606 251.308 353.243 251.308 352.657 250.949 352.294L242.758 344.107 250.949 335.921C251.308 335.557 251.308 334.972 250.949 334.612ZM259.047 377.76C259.047 376.23 257.804 374.983 256.27 374.983 254.74 374.983 253.493 376.23 253.493 377.76 253.493 379.294 254.74 380.541 256.27 380.541 257.804 380.541 259.047 379.294 259.047 377.76ZM260.903 377.76C260.903 380.316 258.825 382.393 256.27 382.393 253.718 382.393 251.637 380.316 251.637 377.76 251.637 375.209 253.718 373.131 256.27 373.131 258.825 373.131 260.903 375.209 260.903 377.76ZM247.36 286.549C247.36 288.083 248.608 289.33 250.142 289.33 251.672 289.33 252.919 288.083 252.919 286.549 252.919 285.019 251.672 283.772 250.142 283.772 248.608 283.772 247.36 285.019 247.36 286.549ZM245.509 286.549C245.509 283.997 247.586 281.92 250.142 281.92 252.693 281.92 254.77 283.997 254.77 286.549 254.77 289.104 252.693 291.181 250.142 291.181 247.586 291.181 245.509 289.104 245.509 286.549ZM84.8763 320.095C84.7462 319.597 84.2374 319.318 83.7439 319.437 83.2505 319.571 82.9559 320.075 83.0898 320.573L105.783 405.327C105.894 405.74 106.268 406.011 106.674 406.011 106.754 406.011 106.835 406.004 106.915 405.981 107.408 405.847 107.703 405.342 107.573 404.848ZM380.744 268.994 374.639 257.949C374.516 257.72 374.489 257.448 374.574 257.203 374.761 256.649 393.429 201.466 397.083 182.606 400.197 166.516 400.021 158.617 396.532 157.744 393.953 157.109 391.983 160.254 391.513 161.08 391.585 163.54 391.677 181.757 379.505 193.934 366.861 206.573 365.58 219.779 365.568 219.913 365.526 220.395 365.121 220.758 364.646 220.758 364.62 220.758 364.593 220.754 364.566 220.754 364.053 220.712 363.678 220.261 363.721 219.752 363.77 219.186 365.079 205.735 378.192 192.621 389.332 181.482 389.696 164.481 389.665 161.394 389.183 161.153 388.246 160.82 387.083 161.103 385.327 161.532 383.64 163.268 382.198 166.122 382.236 166.237 382.251 166.359 382.24 166.489 382.202 166.979 381.165 178.666 369.711 194.136 369.531 194.385 369.248 194.511 368.969 194.511 368.774 194.511 368.583 194.454 368.414 194.331 368.005 194.025 367.917 193.448 368.223 193.035 379.088 178.348 380.331 166.987 380.392 166.394 379.191 165.939 376.081 165.319 373.468 169.672 369.822 175.743 356.655 202.376 356.521 202.644 356.33 203.027 355.901 203.237 355.48 203.134 355.063 203.034 354.765 202.663 354.765 202.231 354.765 198.819 354.142 189.423 351.303 186.979 350.886 186.623 350.461 186.451 349.979 186.451 349.872 186.451 349.765 186.459 349.654 186.474 345.833 187.048 345.362 190.307 344.31 201.531 344 204.852 343.614 208.983 343.025 213.769 340.817 231.71 351.49 281.361 353.499 290.443ZM473.558 397.966C473.394 398.085 473.206 398.142 473.019 398.142 472.732 398.142 472.445 398.005 472.265 397.752L381.742 270.562 353.503 292.796 341.735 302.505 396.494 406.042C396.735 406.497 396.559 407.056 396.107 407.297 395.97 407.369 395.82 407.404 395.675 407.404 395.346 407.404 395.021 407.224 394.856 406.91L339.742 302.704C339.54 302.314 339.635 301.836 339.972 301.556L351.884 291.729C350.477 285.474 338.824 232.751 341.185 213.543 341.774 208.784 342.141 204.84 342.466 201.359 343.518 190.112 343.954 185.456 349.379 184.641 350.519 184.473 351.601 184.794 352.512 185.579 355.278 187.958 356.181 194.393 356.479 198.566 360.144 191.195 368.927 173.632 371.877 168.72 375.029 163.463 379.114 164.049 380.886 164.626 382.542 161.604 384.493 159.81 386.685 159.294 388.185 158.938 389.439 159.275 390.231 159.619 391.207 158.096 393.605 155.097 396.979 155.946 401.888 157.171 402.427 164.745 398.9 182.958 395.388 201.103 378.143 252.418 376.459 257.41L382.722 268.741 473.772 396.677C474.071 397.09 473.971 397.672 473.558 397.966ZM217.675 262.75C217.705 262.75 217.74 262.747 217.77 262.743 218.027 262.72 218.256 262.59 218.409 262.387L234.465 241.389C234.778 240.983 234.698 240.402 234.293 240.088 233.887 239.782 233.306 239.859 232.996 240.264L217.537 260.482 196.049 241.978C195.663 241.645 195.077 241.687 194.745 242.074 194.408 242.46 194.454 243.045 194.84 243.382L217.07 262.525C217.238 262.67 217.457 262.75 217.675 262.75ZM279.984 241.014C280.394 241.324 280.474 241.905 280.168 242.311L266.89 259.908C266.721 260.138 266.453 260.271 266.17 260.279 266.163 260.279 266.159 260.279 266.151 260.279 265.876 260.279 265.616 260.157 265.436 259.943L248.764 239.874C248.439 239.484 248.493 238.898 248.887 238.569 249.281 238.244 249.862 238.298 250.191 238.692L266.117 257.858 278.687 241.194C278.997 240.784 279.579 240.708 279.984 241.014" fill="#224C8D" transform="matrix(1 0 0 1.00099 1327.21 108)"/>
        </g>
    </g>
</svg>